<svg width="37" height="37" viewBox="0 0 37 37" fill="none" xmlns="http://www.w3.org/2000/svg">
<g clip-path="url(#clip0_50_189)">
<g clip-path="url(#clip1_50_189)">
<path d="M0 0.921387H35.15L31.635 34.4515L18.7467 37.9202H16.4033L3.515 34.4515L0 0.921387Z" fill="#D99666"/>
<path d="M17.5752 4.38916H30.4635L28.1202 30.9829L17.5752 34.4517V4.38916Z" fill="#F4B459"/>
<path d="M26.9696 11.3116L27.3387 7.85791H6.99268L7.40276 11.3116L7.77769 15.9598H7.77301L8.12802 19.4193H21.7674L21.2987 24.923L17.5752 26.0839V26.048L12.6237 24.7565L12.3202 21.7237H8.18543L8.7408 27.2945V27.5223L17.5752 29.8267L24.9836 27.5223H25.0738L25.0762 27.491L25.0926 27.4887V27.306L25.7628 19.4193H25.778L26.1342 15.9598H12.0777L11.7028 11.3116H26.9696Z" fill="white"/>
<path d="M17.5752 7.85791H6.99268L7.40276 11.3116L7.77769 15.9598H7.77301L8.12802 19.4193H17.5752V15.9598H12.0777L11.7028 11.3116H17.5752V7.85791Z" fill="#E5E5E5"/>
<path d="M17.5753 26.048L12.6238 24.7565L12.3204 21.7236H8.18555L8.74092 27.2944V27.5222L17.5753 29.8266V26.0839V26.048Z" fill="#E5E5E5"/>
</g>
</g>
<defs>
<clipPath id="clip0_50_189">
<rect width="37" height="37" fill="white"/>
</clipPath>
<clipPath id="clip1_50_189">
<rect width="35.15" height="37" fill="white" transform="translate(0 0.925049)"/>
</clipPath>
</defs>
</svg>
