<svg width="16" height="36" viewBox="0 0 16 36" fill="none" xmlns="http://www.w3.org/2000/svg">
<path d="M8.82203 35.5865L7.86168 35.2675C7.86168 35.2675 7.96838 30.4306 6.23442 30.0851C5.08733 28.7562 6.42115 -26.7626 10.5827 29.899C10.5827 29.899 9.14215 30.6166 8.90206 31.8391C8.6353 33.0351 8.82203 35.5865 8.82203 35.5865Z" fill="white"/>
<path d="M8.82203 35.5865L7.86168 35.2675C7.86168 35.2675 7.96838 30.4306 6.23442 30.0851C5.08733 28.7562 6.42115 -26.7626 10.5827 29.899C10.5827 29.899 9.14215 30.6166 8.90206 31.8391C8.6353 33.0351 8.82203 35.5865 8.82203 35.5865Z" fill="#A6A385"/>
<path d="M9.32902 30.9089C9.32902 30.9089 17.6521 25.4607 15.7047 14.1124C13.8373 5.87357 9.38237 3.16274 8.9022 2.12625C8.36867 1.3821 7.86182 0.079834 7.86182 0.079834L8.20861 23.0156C8.23529 23.0687 7.51502 30.0584 9.32902 30.9089Z" fill="white"/>
<path d="M9.32902 30.9089C9.32902 30.9089 17.6521 25.4607 15.7047 14.1124C13.8373 5.87357 9.38237 3.16274 8.9022 2.12625C8.36867 1.3821 7.86182 0.079834 7.86182 0.079834L8.20861 23.0156C8.23529 23.0687 7.51502 30.0584 9.32902 30.9089Z" fill="#499D4A"/>
<path d="M7.38169 31.2277C7.38169 31.2277 -0.434502 25.9124 0.0189976 16.5573C0.472497 7.20231 5.96784 2.60452 7.0349 1.75407C7.75517 1.00992 7.78184 0.74415 7.83519 0C8.31537 1.03649 8.23534 15.5474 8.28869 17.2749C8.50211 23.8394 7.91522 29.9786 7.38169 31.2277Z" fill="white"/>
<path d="M7.38169 31.2277C7.38169 31.2277 -0.434502 25.9124 0.0189976 16.5573C0.472497 7.20231 5.96784 2.60452 7.0349 1.75407C7.75517 1.00992 7.78184 0.74415 7.83519 0C8.31537 1.03649 8.23534 15.5474 8.28869 17.2749C8.50211 23.8394 7.91522 29.9786 7.38169 31.2277Z" fill="#58AA50"/>
</svg>
