<svg width="63" height="33" viewBox="0 0 63 33" fill="none" xmlns="http://www.w3.org/2000/svg">
<path d="M0.593262 29.5372H2.61652V21.5728L5.79094 28.4983C6.13977 29.3294 6.66303 29.641 7.67466 29.641C8.68628 29.641 9.13977 29.3294 9.52349 28.4983L12.663 21.5728V29.5372H14.6863V21.5728C14.6863 20.811 14.3723 20.4301 13.7095 20.2224C12.1747 19.7722 11.1281 20.1531 10.6747 21.1919L7.60489 28.0482L4.60489 21.1919C4.1514 20.1531 3.10489 19.7722 1.57001 20.2224C0.907215 20.4301 0.593262 20.7764 0.593262 21.5728V29.5372Z" fill="#00678F"/>
<path d="M16.3604 23.062H18.3836V27.425C18.3836 27.6674 18.4534 28.2215 19.5697 28.2561C20.1627 28.2561 23.965 28.2561 23.9999 28.2561V23.0273H26.0231C26.0231 23.0273 26.0231 30.1606 26.0231 30.1952C26.0231 31.9612 23.8255 32.3421 22.8138 32.3421H16.4301V30.9917H22.8487C24.1394 30.8532 23.9999 30.1952 23.9999 29.9875V29.4681H19.6743C17.651 29.4681 16.3604 28.5677 16.3604 27.5635C16.3604 27.4597 16.4301 23.0966 16.3604 23.062Z" fill="#00678F"/>
<path d="M60.1049 17.9716C58.8491 17.937 57.9072 18.0755 57.07 18.3871C56.8258 18.491 56.477 18.491 56.4421 18.768C56.5816 18.9065 56.5816 19.0797 56.6863 19.2528C56.8607 19.5645 57.2095 19.98 57.4886 20.1878C57.8026 20.4302 58.1514 20.6726 58.5002 20.9149C59.0933 21.2958 59.7909 21.5036 60.384 21.8845C60.7328 22.0923 61.0816 22.3693 61.3956 22.6117C61.57 22.7502 61.6747 22.9233 61.884 23.0272V22.9926C61.7793 22.8541 61.7444 22.6463 61.6398 22.5078C61.5002 22.3693 61.3258 22.2308 61.1863 22.0576C60.7328 21.469 60.1747 20.9149 59.5816 20.4994C59.0933 20.1531 57.977 19.703 57.8026 19.1143C57.8026 19.1143 57.8026 19.1143 57.7677 19.0797C58.1165 19.0451 58.5002 18.9412 58.8491 18.8373C59.3723 18.6988 59.8607 18.7334 60.4188 18.5949C60.663 18.5256 60.9072 18.4564 61.1514 18.3871C61.1514 18.3525 61.1514 18.2833 61.1514 18.2486C60.8723 17.9716 60.663 17.5907 60.384 17.3483C59.5816 16.6558 58.7095 15.9978 57.8026 15.4438C57.3142 15.1321 56.6863 14.9244 56.1979 14.682C56.0235 14.5781 55.7095 14.5435 55.6049 14.405C55.3258 14.0587 55.1514 13.6085 54.977 13.2276C54.5235 12.362 54.1049 11.427 53.6863 10.5267C53.4072 9.93803 53.2328 9.31473 52.884 8.76069C51.2793 6.129 49.5351 4.53614 46.8491 2.9779C46.256 2.66625 45.5933 2.52774 44.8607 2.35461C44.477 2.35461 44.0933 2.31998 43.7095 2.28535C43.4654 2.18147 43.2212 1.86982 42.977 1.73131C42.1049 1.17727 39.8026 -0.0346903 39.1398 1.55817C38.7212 2.56237 39.7677 3.56657 40.1165 4.05135C40.3956 4.39763 40.7095 4.81316 40.9188 5.19406C41.0235 5.47108 41.0584 5.7481 41.163 6.02512C41.4072 6.71767 41.6514 7.44485 41.9653 8.10277C42.1398 8.41442 42.3142 8.76069 42.5584 9.07234C42.6979 9.24548 42.9072 9.31473 42.9421 9.59175C42.7328 9.9034 42.6979 10.3536 42.5933 10.7345C42.0351 12.4658 42.2444 14.6474 43.0467 15.9286C43.2909 16.3095 43.884 17.1752 44.6863 16.8289C45.384 16.5519 45.2444 15.6862 45.4188 14.8898C45.4537 14.7166 45.4188 14.5781 45.5235 14.4742V14.5089C45.7328 14.9244 45.9421 15.3745 46.1514 15.7901C46.6398 16.5519 47.477 17.3483 48.1747 17.8677C48.5584 18.1447 48.8374 18.6295 49.3258 18.8027V18.768C49.3258 18.768 49.3258 18.768 49.2909 18.768C49.1863 18.6295 49.0467 18.5603 48.9421 18.4564C48.663 18.1794 48.3491 17.8331 48.1398 17.5214C47.477 16.6558 46.9188 15.6862 46.3956 14.7166C46.1514 14.2318 45.9421 13.7124 45.7328 13.2276C45.6281 13.0545 45.6281 12.7775 45.4886 12.6736C45.2444 13.0199 44.8956 13.2969 44.756 13.7124C44.477 14.3703 44.4421 15.2014 44.3374 16.0325C44.2677 16.0325 44.3026 16.0325 44.2677 16.0671C43.7793 15.9286 43.6049 15.4438 43.3956 14.9936C42.9421 13.8856 42.8374 12.1196 43.256 10.873C43.3607 10.5613 43.8491 9.5225 43.6398 9.21085C43.5351 8.93383 43.2212 8.76069 43.0467 8.5183C42.8374 8.24128 42.6281 7.86038 42.4886 7.5141C42.1049 6.64842 41.9305 5.67885 41.5119 4.81316C41.3374 4.39763 40.9886 3.9821 40.7444 3.63582C40.4653 3.22029 40.1165 2.90865 39.8723 2.42386C39.8026 2.25072 39.6979 1.9737 39.8026 1.80057C39.8374 1.66206 39.9072 1.62743 40.0119 1.5928C40.2212 1.41966 40.7793 1.62743 40.9886 1.73131C41.5816 1.9737 42.0351 2.18147 42.5235 2.49312C42.7328 2.63163 42.977 2.94327 43.256 3.01253C43.3607 3.01253 43.4653 3.01253 43.57 3.01253C44.0584 3.11641 44.6165 3.04716 45.1049 3.18567C45.9421 3.46269 46.6747 3.84359 47.3374 4.25912C49.3607 5.54034 51.07 7.37559 52.1863 9.55713C52.3607 9.9034 52.4654 10.2497 52.6049 10.596C52.9188 11.3578 53.3374 12.1196 53.6514 12.8814C53.9654 13.6085 54.2793 14.3357 54.7677 14.959C55.0119 15.2707 55.9188 15.4438 56.3723 15.6169C56.6863 15.7554 57.1747 15.894 57.4537 16.0325C57.977 16.3441 58.5002 16.725 59.0235 17.0713C59.2677 17.2791 60.07 17.66 60.1049 17.9716Z" fill="#00678F"/>
<path d="M44.2324 4.5708C43.9533 4.5708 43.7789 4.60543 43.6045 4.64006C43.6045 4.64006 43.6045 4.64006 43.6045 4.67468C43.6045 4.67468 43.6045 4.67468 43.6394 4.67468C43.7789 4.91708 43.9882 5.09021 44.1277 5.29798C44.2673 5.54037 44.3719 5.78276 44.4766 6.02516L44.5115 5.99053C44.7208 5.85202 44.8254 5.575 44.8254 5.22872C44.7208 5.12484 44.7208 5.02096 44.651 4.91708C44.5464 4.74394 44.3371 4.67468 44.2324 4.5708Z" fill="#00678F"/>
<path d="M27.5933 29.5372H33.4537C34.1514 29.5372 34.7793 29.3987 35.3374 29.1563C36.2095 28.7408 36.6281 28.2214 36.6281 27.4942V26.0052C36.6281 25.4166 36.1398 24.8972 35.1979 24.5163C34.7095 24.3431 34.0816 24.2392 33.4537 24.2392H31.0119C30.1747 24.2392 29.7909 23.9968 29.6863 23.4428C29.6863 23.3736 29.6863 23.3043 29.6863 23.2697V22.3694C29.6863 22.3347 29.6863 22.2655 29.6863 22.1962C29.7909 21.7807 30.0002 21.6768 30.7328 21.6076C30.8026 21.6076 30.8723 21.6076 30.9072 21.6076H36.6979V20.2571H31.0119C30.1747 20.2571 29.7561 20.2917 29.3723 20.4302C28.1863 20.8111 27.6281 21.3998 27.6281 22.4386V23.5467C27.6281 24.447 28.6398 25.2434 30.384 25.4166C30.5584 25.4166 30.7677 25.4166 30.977 25.4166H33.07C33.1398 25.4166 33.2095 25.4166 33.2793 25.4166C33.9072 25.4858 34.1863 25.5897 34.3956 25.8321C34.5351 25.9706 34.5351 26.0745 34.5351 26.213V27.3903C34.5351 27.5289 34.4305 27.702 34.2561 27.8751C34.0816 28.0483 33.7677 28.1521 33.384 28.1521C33.3142 28.1521 33.2444 28.1521 33.1747 28.1521H27.5933V29.5372Z" fill="#E38D1A"/>
<path d="M49.2905 27.1825C49.2905 28.5676 50.337 29.3294 52.4301 29.468C52.6394 29.468 52.8138 29.5026 53.0231 29.5026H58.3254V28.1521H52.9882C51.8022 28.1521 51.3487 27.8751 51.3487 27.1479V20.2224H49.3254L49.2905 27.1825Z" fill="#E38D1A"/>
<path d="M37.9185 27.2518V22.4732C37.9185 21.2613 38.7906 20.4995 40.4999 20.2917C40.6743 20.2917 40.8836 20.2571 41.058 20.2571H44.9301C45.1394 20.2571 45.3138 20.2571 45.5231 20.2917C47.2324 20.5341 48.0696 21.2613 48.0696 22.4732V27.2518C48.0696 28.256 47.7208 28.7754 46.8836 29.1217L48.8719 30.9223H46.5347L44.9301 29.468L43.2906 29.5719H41.1278C40.7789 29.5719 40.3603 29.5372 39.9417 29.4334C38.5464 29.0525 37.9185 28.3599 37.9185 27.2518ZM40.1161 27.148C40.1161 27.2172 40.151 27.2865 40.151 27.3557C40.2557 27.9098 40.7789 28.2214 41.5812 28.2214H43.4301L41.7557 26.6978H44.0929L45.558 28.0136C45.8371 27.8751 46.0115 27.6327 46.0813 27.3557C46.0813 27.2865 46.0813 27.2172 46.0813 27.148V22.5771C46.0813 22.5079 46.0813 22.4386 46.0813 22.404C45.9766 21.8846 45.4533 21.5729 44.651 21.5729H41.5812C40.6743 21.5729 40.0812 21.9538 40.0812 22.5771L40.1161 27.148Z" fill="#E38D1A"/>
<path d="M59.2326 29.5372H59.5116V28.3945H59.8954V28.1521H58.814V28.3945H59.2326V29.5372ZM61.5 29.5372H61.7791V28.1867H61.3605L61.0116 29.1217L60.6279 28.1867H60.2093V29.5372H60.4884V28.4984L60.8721 29.5372H61.0814L61.4651 28.4984L61.5 29.5372Z" fill="#E38D1A"/>
</svg>
