<svg width="40" height="40" viewBox="0 0 40 40" fill="none" xmlns="http://www.w3.org/2000/svg">
<g clip-path="url(#clip0_50_336)">
<g clip-path="url(#clip1_50_336)">
<path d="M19.9785 39.8938C30.9811 39.8938 39.9004 30.9745 39.9004 19.9719C39.9004 8.96938 30.9811 0.0500488 19.9785 0.0500488C8.97597 0.0500488 0.0566406 8.96938 0.0566406 19.9719C0.0566406 30.9745 8.97597 39.8938 19.9785 39.8938Z" fill="black"/>
<path d="M33.1509 34.9178L15.3616 12.0032H12.0098V27.9342H14.6913V15.4083L31.0461 36.539C31.7829 36.0459 32.486 35.5043 33.1509 34.9178Z" fill="url(#paint0_linear_50_336)"/>
<path fill-rule="evenodd" clip-rule="evenodd" d="M25.5122 12.0032H28.1683V27.9407H25.5122V12.0032Z" fill="url(#paint1_linear_50_336)"/>
</g>
</g>
<defs>
<linearGradient id="paint0_linear_50_336" x1="24.1843" y1="25.838" x2="32.0424" y2="35.5777" gradientUnits="userSpaceOnUse">
<stop stop-color="white"/>
<stop offset="1" stop-color="white" stop-opacity="0"/>
</linearGradient>
<linearGradient id="paint1_linear_50_336" x1="26.8403" y1="12.0035" x2="26.7957" y2="23.7076" gradientUnits="userSpaceOnUse">
<stop stop-color="white"/>
<stop offset="1" stop-color="white" stop-opacity="0"/>
</linearGradient>
<clipPath id="clip0_50_336">
<rect width="40" height="40" fill="white"/>
</clipPath>
<clipPath id="clip1_50_336">
<rect width="40" height="40" fill="white"/>
</clipPath>
</defs>
</svg>
