<svg width="40" height="40" viewBox="0 0 40 40" fill="none" xmlns="http://www.w3.org/2000/svg">
<path d="M20 11.4929C29.6244 11.4929 37.0252 15.5471 37.0252 20C37.0252 24.4528 29.6187 28.5071 20 28.5071C10.3755 28.5071 2.97461 24.4528 2.97461 20C2.97461 15.5471 10.381 11.4929 20 11.4929ZM20 10.5496C10.0778 10.5496 2.03125 14.7778 2.03125 20C2.03125 25.2221 10.0778 29.4505 20 29.4505C29.9221 29.4505 37.9686 25.2221 37.9686 20C37.9686 14.7778 29.9221 10.5496 20 10.5496ZM14.2836 19.2419C13.8401 21.516 12.2734 21.2802 10.3473 21.2802L11.1166 17.3158C13.2505 17.3159 14.6991 17.0857 14.2836 19.2419ZM7.50047 25.295H9.56125L10.0498 22.7795C12.3577 22.7795 13.7895 22.948 15.1147 21.707C16.5802 20.3592 16.962 17.9616 15.9177 16.76C15.373 16.131 14.497 15.8222 13.3066 15.8222H9.33664L7.50047 25.295ZM17.9279 13.301H19.9775L19.4889 15.8166C21.2577 15.8166 22.8973 15.6875 23.6891 16.4175C24.5202 17.1811 24.1216 18.1582 23.223 22.7683H21.1454C22.0102 18.3099 22.173 17.9392 21.8585 17.6023C21.5554 17.2767 20.8646 17.344 19.197 17.344L18.1413 22.7683H16.0917L17.9279 13.301ZM30.3881 19.2419C29.9388 21.5499 28.3273 21.2802 26.4518 21.2802L27.2211 17.3158C29.3661 17.3159 30.8036 17.0857 30.3881 19.2419ZM23.605 25.295H25.6713L26.1599 22.7795C28.5856 22.7795 29.9277 22.9198 31.2248 21.707C32.6903 20.3592 33.0721 17.9616 32.0278 16.76C31.483 16.131 30.607 15.8222 29.4166 15.8222H25.4466L23.605 25.295Z" fill="#007AFF"/>
</svg>
