<svg width="40" height="40" viewBox="0 0 40 40" fill="none" xmlns="http://www.w3.org/2000/svg">
<path d="M19.9668 23.32C21.8151 23.32 23.3135 21.8217 23.3135 19.9734C23.3135 18.1251 21.8151 16.6267 19.9668 16.6267C18.1185 16.6267 16.6201 18.1251 16.6201 19.9734C16.6201 21.8217 18.1185 23.32 19.9668 23.32Z" fill="#00D8FF"/>
<path d="M19.9667 27.64C15.2667 27.64 11.1601 27.0866 8.08673 26.0333C6.0934 25.3533 4.40006 24.4466 3.1934 23.4133C1.9134 22.32 1.2334 21.1266 1.2334 19.9733C1.2334 17.76 3.66007 15.5933 7.7334 14.18C11.0667 13.02 15.4134 12.3733 19.9601 12.3733C24.4267 12.3733 28.7134 13 32.0267 14.1466C33.9667 14.8133 35.6001 15.68 36.7601 16.64C38.0201 17.6933 38.6867 18.8466 38.6867 19.9733C38.6867 22.2733 35.9734 24.6 31.6001 26.0466C28.5067 27.0733 24.3734 27.64 19.9667 27.64ZM19.9667 13.9733C15.6534 13.9733 11.3867 14.6 8.26673 15.6866C4.52006 16.9933 2.84006 18.78 2.84006 19.9733C2.84006 21.2133 4.64673 23.1666 8.60673 24.52C11.5134 25.5133 15.4467 26.04 19.9667 26.04C24.2067 26.04 28.1601 25.5066 31.1001 24.5266C35.2134 23.16 37.0934 21.2066 37.0934 19.9733C37.0934 19.34 36.6134 18.5933 35.7401 17.8666C34.7334 17.0266 33.2667 16.26 31.5134 15.6533C28.3601 14.5733 24.2601 13.9733 19.9667 13.9733Z" fill="#00D8FF"/>
<path d="M12.3731 36.6532C11.6931 36.6532 11.0931 36.5066 10.5864 36.2132C8.6731 35.1066 8.00643 31.9199 8.8131 27.6866C9.4731 24.2132 11.0864 20.1332 13.3598 16.1932C15.5931 12.3266 18.2731 8.92658 20.9198 6.62658C22.4664 5.27992 24.0331 4.29325 25.4464 3.77325C26.9864 3.20658 28.3198 3.20658 29.2931 3.76658C31.2864 4.91325 31.9464 8.43325 31.0131 12.9399C30.3531 16.1399 28.7798 19.9999 26.5798 23.8199C24.2331 27.8866 21.6998 31.1666 19.2531 33.3066C17.6664 34.6932 16.0331 35.7066 14.5398 36.2332C13.7598 36.5132 13.0264 36.6532 12.3731 36.6532ZM14.0464 16.5932L14.7398 16.9932C12.5864 20.7266 10.9931 24.7332 10.3798 27.9866C9.63977 31.8866 10.3531 34.2332 11.3798 34.8266C11.6331 34.9732 11.9664 35.0532 12.3731 35.0532C13.6998 35.0532 15.7864 34.2132 18.1998 32.1066C20.5131 30.0866 22.9331 26.9399 25.1931 23.0266C27.3131 19.3532 28.8198 15.6599 29.4464 12.6266C30.3198 8.37991 29.5664 5.77992 28.4931 5.15992C27.9464 4.84658 27.0598 4.88658 25.9931 5.27992C24.7598 5.73325 23.3664 6.61992 21.9664 7.83992C19.4531 10.0266 16.8864 13.2799 14.7398 16.9999L14.0464 16.5932Z" fill="#00D8FF"/>
<path d="M27.5598 36.6732C25.7464 36.6732 23.4464 35.5799 21.0464 33.5132C18.3664 31.2066 15.6398 27.7732 13.3598 23.8332C11.1198 19.9666 9.51976 15.9466 8.84642 12.4999C8.45309 10.4866 8.37976 8.6399 8.63309 7.15323C8.91309 5.53323 9.57309 4.3799 10.5531 3.81323C12.5398 2.6599 15.9198 3.84657 19.3598 6.90657C21.7998 9.07323 24.3598 12.3666 26.5664 16.1799C28.9198 20.2466 30.4998 24.0799 31.1264 27.2666C31.5331 29.3332 31.5998 31.2532 31.3131 32.8132C31.0064 34.4732 30.3131 35.6532 29.3131 36.2332C28.8131 36.5266 28.2198 36.6732 27.5598 36.6732ZM14.7464 23.0332C16.9064 26.7666 19.5864 30.1466 22.0931 32.2999C25.0998 34.8866 27.4864 35.4466 28.5198 34.8466C29.5931 34.2266 30.3798 31.6866 29.5664 27.5799C28.9664 24.5666 27.4531 20.8999 25.1864 16.9866C23.0598 13.3132 20.6131 10.1599 18.2998 8.10657C15.0598 5.22657 12.4331 4.5799 11.3598 5.1999C10.8131 5.51323 10.4064 6.30657 10.2131 7.42657C9.99309 8.7199 10.0598 10.3732 10.4198 12.1932C11.0598 15.4666 12.5931 19.3132 14.7464 23.0332Z" fill="#00D8FF"/>
</svg>
