<svg width="40" height="40" viewBox="0 0 40 40" fill="none" xmlns="http://www.w3.org/2000/svg">
<g clip-path="url(#clip0_50_354)">
<path d="M20.0003 6.66663C17.2644 6.66663 14.9122 7.40505 13.0659 8.98761C11.2329 10.5588 10.0337 12.8461 9.36853 15.697C9.22333 16.3192 9.53995 16.9569 10.1233 17.2174C10.7067 17.4779 11.3929 17.288 11.7593 16.7645C12.6036 15.5584 13.4467 14.8336 14.2567 14.4616C15.0412 14.1014 15.8868 14.0284 16.8553 14.2879C17.8328 14.5497 18.5894 15.3165 19.7773 16.6084L19.8157 16.6501C20.7111 17.6241 21.8034 18.8122 23.2975 19.734C24.8478 20.6906 26.777 21.3333 29.3338 21.3333C32.0695 21.3333 34.4218 20.5948 36.2682 19.0123C38.101 17.4411 39.3002 15.1538 39.9655 12.3029C40.1106 11.6807 39.794 11.043 39.2106 10.7825C38.6274 10.522 37.941 10.7119 37.5746 11.2353C36.7303 12.4415 35.8874 13.1663 35.0772 13.5383C34.2927 13.8985 33.4471 13.9715 32.4786 13.712C31.5012 13.4502 30.7444 12.6834 29.5567 11.3915L29.5183 11.3497C28.6228 10.3758 27.5306 9.18764 26.0365 8.26585C24.4862 7.30932 22.557 6.66663 20.0003 6.66663Z" fill="#41A2EB"/>
<path d="M10.6668 18.6666C7.93091 18.6666 5.57875 19.4051 3.73243 20.9876C1.89939 22.5588 0.700245 24.846 0.0350307 27.6971C-0.110149 28.3192 0.206443 28.9568 0.789829 29.2173C1.37322 29.4779 2.0594 29.288 2.42579 28.7645C3.27013 27.5584 4.11317 26.8336 4.9232 26.4616C5.70768 26.1014 6.55325 26.0284 7.52184 26.2879C8.49928 26.5497 9.25592 27.3165 10.4438 28.6085L10.4822 28.6501C11.3776 29.624 12.47 30.8123 13.964 31.7341C15.5143 32.6907 17.4434 33.3333 20.0002 33.3333C22.7361 33.3333 25.0882 32.5949 26.9347 31.0123C28.7675 29.4411 29.9667 27.1539 30.632 24.3029C30.7771 23.6807 30.4605 23.043 29.8771 22.7825C29.2939 22.522 28.6075 22.7119 28.2411 23.2353C27.3968 24.4415 26.5538 25.1663 25.7438 25.5382C24.9593 25.8984 24.1137 25.9715 23.1451 25.712C22.1677 25.4502 21.4111 24.6834 20.2232 23.3915L20.1848 23.3497C19.2894 22.3758 18.197 21.1876 16.703 20.2658C15.1527 19.3093 13.2235 18.6666 10.6668 18.6666Z" fill="#41A2EB"/>
</g>
<defs>
<clipPath id="clip0_50_354">
<rect width="40" height="40" fill="white"/>
</clipPath>
</defs>
</svg>
