<svg width="39" height="39" viewBox="0 0 39 39" fill="none" xmlns="http://www.w3.org/2000/svg">
<path d="M14.0832 35.75C17.0732 35.75 19.4998 33.3233 19.4998 30.3333V24.9167H14.0832C11.0932 24.9167 8.6665 27.3433 8.6665 30.3333C8.6665 33.3233 11.0932 35.75 14.0832 35.75Z" fill="#0ACF83"/>
<path d="M8.6665 19.5C8.6665 16.51 11.0932 14.0833 14.0832 14.0833H19.4998V24.9167H14.0832C11.0932 24.9167 8.6665 22.49 8.6665 19.5Z" fill="#A259FF"/>
<path d="M8.6665 8.66667C8.6665 5.67667 11.0932 3.25 14.0832 3.25H19.4998V14.0833H14.0832C11.0932 14.0833 8.6665 11.6567 8.6665 8.66667Z" fill="#F24E1E"/>
<path d="M19.5 3.25H24.9167C27.9067 3.25 30.3333 5.67667 30.3333 8.66667C30.3333 11.6567 27.9067 14.0833 24.9167 14.0833H19.5V3.25Z" fill="#FF7262"/>
<path d="M30.3333 19.5C30.3333 22.49 27.9067 24.9167 24.9167 24.9167C21.9267 24.9167 19.5 22.49 19.5 19.5C19.5 16.51 21.9267 14.0833 24.9167 14.0833C27.9067 14.0833 30.3333 16.51 30.3333 19.5Z" fill="#1ABCFE"/>
</svg>
