<svg width="40" height="40" viewBox="0 0 40 40" fill="none" xmlns="http://www.w3.org/2000/svg">
<path d="M3.53955 17.2486C3.53955 19.2781 4.83908 22.0615 6.86869 22.7435V22.8236C5.36057 23.4893 4.94346 26.8825 6.94885 28.1019V28.1821C4.75893 28.9041 3.31494 30.2918 3.31494 32.6904C3.31494 36.8217 7.22963 37.9687 10.6549 37.9687C14.8262 37.9687 17.9306 36.4686 17.9306 31.8722C17.9306 26.2168 9.82869 28.3026 9.82869 25.2301C9.82869 24.1474 10.4062 23.7302 11.4089 23.5215C14.738 22.904 16.8236 20.3129 16.8236 16.9278C16.8236 16.3422 16.7032 15.7886 16.5028 15.2432C17.0403 15.1229 17.5617 14.9784 18.0831 14.802V10.751C16.7033 11.2965 15.2193 11.6975 13.7112 11.6975C9.39541 9.21082 3.53955 11.8018 3.53955 17.2486ZM10.5746 30.3882C11.9385 30.3882 13.8796 30.6289 13.8796 32.3936C13.8796 34.1424 12.3155 34.5033 10.8555 34.5033C9.46775 34.5033 7.38205 34.2868 7.38205 32.4818C7.39002 30.6929 9.15478 30.3882 10.5746 30.3882ZM10.3179 20C8.55314 20 7.80713 18.9573 7.80713 17.2888C7.80713 13.3341 12.7003 13.3742 12.7003 17.2486C12.7003 18.877 12.0587 20 10.3179 20ZM36.6854 23.9707V27.9014C35.6185 28.4868 34.2388 28.6875 33.0353 28.6875C28.7438 28.6875 28.2385 25.3022 28.2385 21.8131V14.7779H28.2785V14.6978C27.717 14.6978 27.6931 14.5693 26.3534 14.7779V10.9676H28.2785C28.2785 9.17879 28.3028 8.48083 28.1582 7.6627H32.7067C32.5462 8.76973 32.5863 9.86864 32.5863 10.9676H36.6774V14.7779C36.6774 14.7779 35.1291 14.6978 32.5863 14.6978V22.0054C32.5863 23.1928 32.851 24.6368 34.3351 24.6368C35.1211 24.6368 36.0435 24.4122 36.6854 23.9707ZM24.9736 4.97543C24.9736 6.47551 23.8105 7.87926 22.2624 7.87926C20.674 7.87926 19.4948 6.49958 19.4948 4.97543C19.4948 3.42723 20.6579 2.03137 22.2624 2.03137C23.8506 2.03137 24.9736 3.47528 24.9736 4.97543ZM24.4763 10.9516C24.3318 12.1227 24.348 26.9789 24.4763 28.4229H20.0242C20.1525 26.9711 20.1685 12.1388 20.0242 10.9516H24.4763Z" fill="#F05033"/>
</svg>
