<svg width="40" height="40" viewBox="0 0 40 40" fill="none" xmlns="http://www.w3.org/2000/svg">
<path fill-rule="evenodd" clip-rule="evenodd" d="M20 2.5C10.3359 2.5 2.5 10.5313 2.5 20.4453C2.5 28.375 7.51562 35.0938 14.4688 37.4688C15.3438 37.6328 15.6641 37.0781 15.6641 36.6016C15.6641 36.1719 15.6484 35.0469 15.6406 33.5469C10.7734 34.6328 9.74219 31.1406 9.74219 31.1406C8.94531 29.0703 7.79688 28.5156 7.79688 28.5156C6.21094 27.3984 7.91406 27.4219 7.91406 27.4219C9.67188 27.5469 10.5938 29.2734 10.5938 29.2734C12.1562 32.0156 14.6875 31.2266 15.6875 30.7656C15.8438 29.6094 16.2969 28.8125 16.7969 28.3672C12.9141 27.9141 8.82812 26.375 8.82812 19.5C8.82812 17.5391 9.50781 15.9375 10.625 14.6875C10.4453 14.2344 9.84375 12.4062 10.7969 9.9375C10.7969 9.9375 12.2656 9.45312 15.6094 11.7734C17.0078 11.375 18.5 11.1797 19.9922 11.1719C21.4766 11.1797 22.9766 11.375 24.375 11.7734C27.7188 9.45312 29.1797 9.9375 29.1797 9.9375C30.1328 12.4062 29.5312 14.2344 29.3516 14.6875C30.4688 15.9453 31.1484 17.5469 31.1484 19.5C31.1484 26.3906 27.0547 27.9062 23.1562 28.3516C23.7812 28.9062 24.3438 30 24.3438 31.6719C24.3438 34.0703 24.3203 36.0078 24.3203 36.5938C24.3203 37.0703 24.6328 37.6328 25.5234 37.4531C32.4922 35.0859 37.5 28.3672 37.5 20.4453C37.5 10.5313 29.6641 2.5 20 2.5Z" fill="black"/>
</svg>
